<?xml version="1.0" encoding="utf-8"?>
<!-- Generator: Adobe Illustrator 27.5.0, SVG Export Plug-In . SVG Version: 6.00 Build 0)  -->
<svg version="1.1" xmlns="http://www.w3.org/2000/svg" xmlns:xlink="http://www.w3.org/1999/xlink" x="0px" y="0px"
	 viewBox="0 0 500 500" style="enable-background:new 0 0 500 500;" xml:space="preserve">
<g id="BACKGROUND">
	<rect style="fill:#FFFFFF;" width="500" height="500"/>
</g>
<g id="OBJECTS">
	<ellipse style="fill:#DBE6F7;" cx="250.706" cy="434.751" rx="221.255" ry="13.999"/>
	<g>
		<path style="fill:#DBE6F7;" d="M165.174,95.284c0,1.046-0.426,1.999-1.12,2.689c-0.686,0.694-1.639,1.121-2.685,1.121H79.925
			c-2.092,0-3.806-1.714-3.806-3.81c0-1.046,0.426-1.999,1.121-2.689c0.685-0.695,1.639-1.121,2.685-1.121h3.849
			c1.52-3.533,5.031-6.002,9.118-6.002c2.751,0,5.238,1.12,7.04,2.926c2.399-4.069,6.824-6.802,11.891-6.802
			c1.393,0,2.733,0.211,3.999,0.593c2.65-4.983,7.888-8.375,13.926-8.375c7.251,0,13.35,4.895,15.191,11.557
			c1.336-0.668,2.843-1.05,4.443-1.05c4.522,0,8.336,3.019,9.536,7.154h2.452C163.46,91.474,165.174,93.188,165.174,95.284z"/>
		<path style="fill:#DBE6F7;" d="M477.646,145.893c0,1.046-0.426,1.999-1.121,2.689c-0.686,0.694-1.639,1.121-2.685,1.121h-81.444
			c-2.092,0-3.806-1.714-3.806-3.81c0-1.046,0.426-1.999,1.121-2.689c0.685-0.694,1.639-1.121,2.685-1.121h3.849
			c1.52-3.533,5.031-6.003,9.118-6.003c2.751,0,5.238,1.12,7.04,2.926c2.399-4.069,6.824-6.802,11.891-6.802
			c1.393,0,2.733,0.211,3.999,0.593c2.65-4.983,7.888-8.376,13.926-8.376c7.251,0,13.35,4.895,15.191,11.557
			c1.336-0.668,2.843-1.05,4.443-1.05c4.522,0,8.336,3.019,9.536,7.154h2.452C475.932,142.083,477.646,143.797,477.646,145.893z"/>
		<path style="fill:#DBE6F7;" d="M328.064,104.85c0,1.046-0.426,2-1.121,2.689c-0.686,0.695-1.639,1.121-2.685,1.121h-81.444
			c-2.092,0-3.805-1.714-3.805-3.81c0-1.046,0.426-1.999,1.121-2.689c0.685-0.695,1.639-1.121,2.685-1.121h3.85
			c1.52-3.533,5.031-6.003,9.118-6.003c2.751,0,5.238,1.12,7.04,2.926c2.399-4.069,6.824-6.802,11.891-6.802
			c1.393,0,2.733,0.211,3.999,0.593c2.65-4.983,7.888-8.376,13.926-8.376c7.251,0,13.35,4.896,15.191,11.557
			c1.336-0.668,2.843-1.05,4.443-1.05c4.522,0,8.336,3.019,9.536,7.154h2.452C326.35,101.04,328.064,102.754,328.064,104.85z"/>
	</g>
	<g>
		<g>
			<path style="fill:#BBD4F2;" d="M67.337,194.587c3.303,11.103,14.392,10.757,14.156,19.771
				c-0.236,9.012,5.428,15.855,13.212,14.204c7.787-1.653,13.424-3.304,16.977,5.662c3.55,8.966,14.876,13.448,19.358,6.369
				c1.117-1.761,2.323-3.67,3.502-5.544c0.322-0.512,0.644-1.021,0.96-1.523c0.074-0.116,0.148-0.232,0.22-0.348
				c4.746-7.535,3.179-17.52-3.818-23.028c-2.833-2.229-6.221-3.482-10.064-2.351c-12.033,3.538-7.697-8.564-14.866-13.684
				c-8.257-5.9-15.34,0.778-20.997-4.248C78.107,182.878,64.035,183.484,67.337,194.587z"/>
			<g>
				<path style="fill:#A4C8F2;" d="M81.693,199.387l52.849,35.663c0.322-0.512,0.644-1.021,0.96-1.523l-52.801-35.631
					c-0.412-0.278-0.972-0.17-1.249,0.242C81.173,198.549,81.281,199.109,81.693,199.387z"/>
			</g>
		</g>
		<path style="fill:#DBE6F7;" d="M328.781,141.104c12.443-5.184,23.27-12.386,17.263-16.701c-6.012-4.32-24.408,8.426-32.922,23.441
			l-4.118,4.415c6.396-10.834,8.268-26.487,2.735-29.459c-5.498-2.954-5.798,7.578-4.468,17.244
			c1.013,7.357-0.011,12.406-0.784,14.914l-19.448,20.853c10.079-17.186,13.009-41.895,4.254-46.598
			c-8.724-4.687-9.2,12.025-7.09,27.361c1.595,11.59,0.006,19.574-1.217,23.582l-3.878,4.158c0.615,0.785,1.235,1.567,1.86,2.345
			l23.137-24.809c2.769-0.701,6.77-1.277,11.982-0.927c9.735,0.654,20.22-0.379,16.891-5.658
			c-2.889-4.581-14.802-3.013-24.672,2.081l8.001-8.58C319.236,146.535,323.41,143.341,328.781,141.104z"/>
		<g>
			<path style="fill:#DBE6F7;" d="M81.317,149.77c-1.301,10.737,8.325,14.564,4.771,22.196c-3.553,7.63-1.248,15.597,6.033,17.077
				c7.283,1.48,12.725,2.162,12.433,11.161c-0.294,8.999,7.738,17.049,14.209,12.653c1.612-1.093,3.354-2.28,5.061-3.445
				c0.466-0.319,0.931-0.635,1.388-0.948c0.107-0.072,0.213-0.144,0.318-0.216c6.866-4.688,9.237-13.822,5.293-21.141
				c-1.597-2.962-4.033-5.296-7.744-5.756c-11.621-1.444-3.407-10.197-7.642-17.247c-4.877-8.122-13.426-5.038-16.402-11.446
				C94.894,143.747,82.617,139.033,81.317,149.77z"/>
			<g>
				<path style="fill:#BBD4F2;" d="M91.826,159.219l31.998,50.194c0.466-0.319,0.931-0.635,1.388-0.948l-31.968-50.148
					c-0.249-0.391-0.769-0.507-1.16-0.257C91.692,158.308,91.577,158.828,91.826,159.219z"/>
			</g>
		</g>
		<g>
			<path style="fill:#BBD4F2;" d="M339.229,366.294c-3.383,11.373-14.742,11.019-14.5,20.253c0.242,9.231-5.56,16.241-13.534,14.549
				c-7.976-1.693-13.751-3.385-17.39,5.799c-3.637,9.184-15.237,13.775-19.829,6.524c-1.145-1.804-2.379-3.76-3.588-5.678
				c-0.33-0.524-0.659-1.046-0.983-1.56c-0.076-0.119-0.152-0.238-0.225-0.356c-4.861-7.718-3.256-17.947,3.911-23.588
				c2.902-2.283,6.372-3.567,10.308-2.408c12.326,3.625,7.884-8.773,15.227-14.017c8.457-6.043,15.712,0.797,21.508-4.352
				C328.197,354.3,342.612,354.92,339.229,366.294z"/>
			<g>
				<path style="fill:#A4C8F2;" d="M324.524,371.21l-54.135,36.53c-0.33-0.524-0.659-1.046-0.983-1.56l54.085-36.497
					c0.422-0.285,0.995-0.174,1.28,0.248C325.056,370.352,324.946,370.926,324.524,371.21z"/>
			</g>
		</g>
		<g>
			<path style="fill:#DBE6F7;" d="M319.594,324.299c1.332,10.998-8.527,14.918-4.887,22.736c3.64,7.816,1.278,15.976-6.18,17.492
				c-7.46,1.516-13.035,2.215-12.736,11.433c0.301,9.218-7.927,17.463-14.555,12.961c-1.651-1.119-3.436-2.335-5.184-3.529
				c-0.477-0.326-0.954-0.651-1.422-0.971c-0.109-0.074-0.218-0.147-0.326-0.221c-7.033-4.802-9.462-14.158-5.422-21.655
				c1.636-3.034,4.131-5.425,7.932-5.896c11.903-1.479,3.489-10.444,7.828-17.666c4.996-8.32,13.752-5.161,16.801-11.724
				C305.687,318.13,318.262,313.301,319.594,324.299z"/>
			<g>
				<g>
					<path style="fill:#BBD4F2;" d="M308.829,333.978l-32.776,51.415c-0.477-0.326-0.954-0.651-1.422-0.971l32.746-51.368
						c0.255-0.401,0.788-0.519,1.188-0.264C308.966,333.045,309.085,333.577,308.829,333.978z"/>
				</g>
			</g>
		</g>
	</g>
	<g>
		<g>
			<g>
				<g>
					<g>
						<path style="fill:#4F60D9;" d="M469.994,293.757c3.014,0,5.466,2.452,5.466,5.466c0,3.014-2.452,5.466-5.466,5.466
							c-3.014,0-5.466-2.452-5.466-5.466C464.528,296.209,466.98,293.757,469.994,293.757z M469.994,295.471
							c-2.068,0-3.751,1.683-3.751,3.751c0,2.068,1.683,3.751,3.751,3.751c2.069,0,3.751-1.683,3.751-3.751
							C473.746,297.154,472.063,295.471,469.994,295.471z"/>
					</g>
					<g>
						<path style="fill:#707FFF;" d="M464.434,265.975c3.014,0,5.466,2.452,5.466,5.466c0,3.014-2.452,5.466-5.466,5.466
							c-3.014,0-5.466-2.452-5.466-5.466C458.967,268.428,461.42,265.975,464.434,265.975z M464.434,267.69
							c-2.069,0-3.751,1.683-3.751,3.751c0,2.068,1.683,3.751,3.751,3.751c2.069,0,3.751-1.683,3.751-3.751
							C468.185,269.373,466.502,267.69,464.434,267.69z"/>
					</g>
					<g>
						<g>
							<g>
								<path style="fill:#1D38C8;" d="M447.807,258.278c0,0.473,0.384,0.857,0.857,0.857h3.781c0.474,0,0.857-0.384,0.857-0.857
									c0-0.473-0.384-0.857-0.857-0.857h-3.781C448.19,257.42,447.807,257.804,447.807,258.278z"/>
							</g>
							<g>
								<path style="fill:#1D38C8;" d="M441.19,258.278c0,0.473,0.384,0.857,0.857,0.857h3.781c0.474,0,0.857-0.384,0.857-0.857
									c0-0.473-0.384-0.857-0.857-0.857h-3.781C441.574,257.42,441.19,257.804,441.19,258.278z"/>
							</g>
						</g>
						<g>
							<g>
								<path style="fill:#1D38C8;" d="M446.389,252.97v3.397c0,0.474,0.384,0.858,0.858,0.858c0.474,0,0.857-0.384,0.857-0.858
									v-3.397c0-0.473-0.384-0.857-0.857-0.857C446.773,252.113,446.389,252.497,446.389,252.97z"/>
							</g>
							<g>
								<path style="fill:#1D38C8;" d="M446.389,260.189v3.397c0,0.473,0.384,0.857,0.858,0.857c0.474,0,0.857-0.384,0.857-0.857
									v-3.397c0-0.474-0.384-0.857-0.857-0.857C446.773,259.331,446.389,259.715,446.389,260.189z"/>
							</g>
						</g>
					</g>
					<g>
						<g>
							<g>
								<g>
									<path style="fill:#707FFF;" d="M453.973,287.473c0,0.473,0.384,0.857,0.857,0.857h3.781c0.474,0,0.857-0.384,0.857-0.857
										c0-0.474-0.384-0.858-0.857-0.858h-3.781C454.357,286.615,453.973,286.999,453.973,287.473z"/>
								</g>
								<g>
									<path style="fill:#707FFF;" d="M447.356,287.473c0,0.473,0.384,0.857,0.858,0.857h3.781c0.474,0,0.858-0.384,0.858-0.857
										c0-0.474-0.384-0.858-0.858-0.858h-3.781C447.74,286.615,447.356,286.999,447.356,287.473z"/>
								</g>
							</g>
							<g>
								<g>
									<path style="fill:#707FFF;" d="M452.555,282.165v3.397c0,0.473,0.384,0.857,0.857,0.857c0.474,0,0.857-0.384,0.857-0.857
										v-3.397c0-0.473-0.384-0.857-0.857-0.857C452.939,281.308,452.555,281.692,452.555,282.165z"/>
								</g>
								<g>
									<path style="fill:#707FFF;" d="M452.555,289.383v3.397c0,0.473,0.384,0.857,0.857,0.857c0.474,0,0.857-0.384,0.857-0.857
										v-3.397c0-0.473-0.384-0.857-0.857-0.857C452.939,288.526,452.555,288.91,452.555,289.383z"/>
								</g>
							</g>
						</g>
					</g>
				</g>
			</g>
		</g>
		<g>
			<g>
				<g>
					<g>
						<path style="fill:#4F60D9;" d="M55.618,161.495c0,3.014-2.452,5.466-5.466,5.466c-3.014,0-5.466-2.452-5.466-5.466
							s2.452-5.466,5.466-5.466C53.166,156.029,55.618,158.481,55.618,161.495z M46.401,161.495c0,2.068,1.683,3.751,3.751,3.751
							c2.069,0,3.751-1.683,3.751-3.751c0-2.068-1.683-3.751-3.751-3.751C48.084,157.744,46.401,159.426,46.401,161.495z"/>
					</g>
					<g>
						<g>
							<path style="fill:#1D38C8;" d="M61.179,133.714c0,3.014-2.452,5.466-5.466,5.466c-3.014,0-5.466-2.452-5.466-5.466
								s2.452-5.466,5.466-5.466C58.727,128.248,61.179,130.7,61.179,133.714z M51.962,133.714c0,2.068,1.683,3.751,3.751,3.751
								c2.069,0,3.751-1.683,3.751-3.751s-1.683-3.751-3.751-3.751C53.645,129.962,51.962,131.645,51.962,133.714z"/>
						</g>
					</g>
					<g>
						<g>
							<g>
								<path style="fill:#4F60D9;" d="M72.34,120.55c0,0.473-0.384,0.857-0.857,0.857h-3.781c-0.473,0-0.857-0.384-0.857-0.857
									c0-0.474,0.384-0.857,0.857-0.857h3.781C71.956,119.693,72.34,120.077,72.34,120.55z"/>
							</g>
							<g>
								<path style="fill:#4F60D9;" d="M78.957,120.55c0,0.473-0.384,0.857-0.857,0.857h-3.781c-0.474,0-0.857-0.384-0.857-0.857
									c0-0.474,0.384-0.857,0.857-0.857H78.1C78.573,119.693,78.957,120.077,78.957,120.55z"/>
							</g>
						</g>
						<g>
							<g>
								<path style="fill:#4F60D9;" d="M73.758,115.243v3.397c0,0.474-0.384,0.858-0.857,0.858c-0.474,0-0.857-0.384-0.857-0.858
									v-3.397c0-0.473,0.384-0.857,0.857-0.857C73.374,114.385,73.758,114.769,73.758,115.243z"/>
							</g>
							<g>
								<path style="fill:#4F60D9;" d="M73.758,122.461v3.397c0,0.473-0.384,0.857-0.857,0.857c-0.474,0-0.857-0.384-0.857-0.857
									v-3.397c0-0.474,0.384-0.857,0.857-0.857C73.374,121.604,73.758,121.987,73.758,122.461z"/>
							</g>
						</g>
					</g>
					<g>
						<g>
							<g>
								<g>
									<path style="fill:#707FFF;" d="M66.174,149.745c0,0.473-0.384,0.857-0.857,0.857h-3.781c-0.474,0-0.857-0.384-0.857-0.857
										c0-0.474,0.384-0.857,0.857-0.857h3.781C65.79,148.887,66.174,149.271,66.174,149.745z"/>
								</g>
								<g>
									<path style="fill:#707FFF;" d="M72.791,149.745c0,0.473-0.384,0.857-0.858,0.857h-3.781c-0.474,0-0.858-0.384-0.858-0.857
										c0-0.474,0.384-0.857,0.858-0.857h3.781C72.407,148.887,72.791,149.271,72.791,149.745z"/>
								</g>
							</g>
							<g>
								<g>
									<path style="fill:#707FFF;" d="M67.592,144.437v3.397c0,0.473-0.384,0.857-0.857,0.857c-0.474,0-0.857-0.384-0.857-0.857
										v-3.397c0-0.473,0.384-0.857,0.857-0.857C67.208,143.58,67.592,143.964,67.592,144.437z"/>
								</g>
								<g>
									<path style="fill:#707FFF;" d="M67.592,151.656v3.397c0,0.473-0.384,0.857-0.857,0.857c-0.474,0-0.857-0.384-0.857-0.857
										v-3.397c0-0.473,0.384-0.857,0.857-0.857C67.208,150.798,67.592,151.182,67.592,151.656z"/>
								</g>
							</g>
						</g>
					</g>
				</g>
			</g>
		</g>
		<g>
			<g>
				<path style="fill:#4F60D9;" d="M390.185,163.233v13.797c0,1.824,1.48,3.303,3.303,3.303h25.052l7.563,2.714
					c0.777,0.279,1.52-0.485,1.222-1.253l-2.861-7.388v-11.173c0-1.824-1.48-3.303-3.305-3.303h-27.671
					C391.664,159.93,390.185,161.409,390.185,163.233z"/>
			</g>
			<g style="opacity:0.5;">
				<g>
					<path style="fill:#707FFF;" d="M411.948,170.524c0,1.32,1.07,2.39,2.39,2.39c1.32,0,2.39-1.07,2.39-2.39s-1.07-2.39-2.39-2.39
						C413.018,168.135,411.948,169.204,411.948,170.524z"/>
					<path style="fill:#707FFF;" d="M404.383,170.524c0,1.32,1.07,2.39,2.39,2.39c1.32,0,2.39-1.07,2.39-2.39s-1.07-2.39-2.39-2.39
						C405.453,168.135,404.383,169.204,404.383,170.524z"/>
					<path style="fill:#707FFF;" d="M396.819,170.524c0,1.32,1.07,2.39,2.39,2.39s2.39-1.07,2.39-2.39s-1.07-2.39-2.39-2.39
						S396.819,169.204,396.819,170.524z"/>
				</g>
			</g>
		</g>
	</g>
	<g>
		<g>
			<g>
				<g>
					<g>
						<g>
							<g>
								<path style="fill:#3B3E7D;" d="M120.373,160.887v257.915c0,8.085,6.552,14.637,14.637,14.637l128.436,0
									c4.062,0,7.734-1.653,10.388-4.322c2.626-2.648,4.249-6.291,4.249-10.315V160.887c0-8.085-6.552-14.637-14.637-14.637
									H135.01c-2.39,0-4.646,0.572-6.639,1.589C123.622,150.258,120.373,155.192,120.373,160.887z"/>
							</g>
						</g>
						<g>
							<g>
								<path style="fill:#18285D;" d="M125.826,160.887v257.915c0,8.085,6.552,14.637,14.637,14.637l128.436,0
									c4.062,0,7.734-1.653,10.387-4.322c2.626-2.648,4.25-6.291,4.25-10.315V160.887c0-8.085-6.552-14.637-14.637-14.637H140.463
									c-2.39,0-4.646,0.572-6.639,1.589C129.075,150.258,125.826,155.192,125.826,160.887z"/>
							</g>
						</g>
						<g>
							<g>
								<path style="fill:#18285D;" d="M123.051,209.682h-1.662c-2.09,0-3.784-1.694-3.784-3.784v-15.725
									c0-2.09,1.694-3.784,3.784-3.784h1.662V209.682z"/>
							</g>
						</g>
						<g>
							<g>
								<path style="fill:#18285D;" d="M123.051,240.145h-1.662c-2.09,0-3.784-1.694-3.784-3.784v-15.725
									c0-2.09,1.694-3.784,3.784-3.784h1.662V240.145z"/>
							</g>
						</g>
						<g>
							<g>
								<path style="fill:#18285D;" d="M283.536,209.682h1.302c1.638,0,2.965-1.328,2.965-2.965v-17.363
									c0-1.637-1.327-2.965-2.965-2.965h-1.302V209.682z"/>
							</g>
						</g>
						<g>
							<g>
								<path style="fill:#FFFFFF;" d="M276.232,160v259.685c0,0.895-0.182,1.747-0.512,2.522c-0.985,2.313-3.27,3.925-5.935,3.925
									H139.577c-3.557,0-6.447-2.88-6.447-6.448V160c0-0.36,0.027-0.715,0.087-1.06c0.363-2.193,1.84-4.015,3.827-4.875
									c0.415-0.175,0.847-0.31,1.298-0.395c0.398-0.08,0.813-0.12,1.235-0.12h130.208C273.345,153.55,276.232,156.44,276.232,160z
									"/>
							</g>
						</g>
						<path style="fill:#DBE6F7;" d="M276.232,160v13.315H133.13V160c0-0.36,0.027-0.715,0.087-1.06
							c0.363-2.193,1.84-4.015,3.827-4.875c0.415-0.175,0.847-0.31,1.298-0.395c0.398-0.08,0.813-0.12,1.235-0.12h130.208
							C273.345,153.55,276.232,156.44,276.232,160z"/>
						<g>
							<g>
								<path style="fill:#18285D;" d="M253.639,153.543l-6.64,10.103c-1.852,2.818-4.998,4.516-8.371,4.516h-64.171
									c-3.373,0-6.519-1.697-8.371-4.516l-6.64-10.103c0-1.047,0.856-1.905,1.906-1.905h90.382
									C252.781,151.638,253.639,152.497,253.639,153.543z"/>
							</g>
							<path style="opacity:0.3;fill:#DBE6F7;" d="M229.309,160.847h-55.711c-0.917,0-1.668-0.751-1.668-1.668v-0.727
								c0-0.917,0.751-1.668,1.668-1.668h55.711c0.917,0,1.668,0.751,1.668,1.668v0.727
								C230.978,160.097,230.227,160.847,229.309,160.847z"/>
							<path style="opacity:0.3;fill:#DBE6F7;" d="M241.756,158.681c0,1.346-1.091,2.438-2.438,2.438s-2.438-1.091-2.438-2.438
								c0-1.346,1.091-2.438,2.438-2.438S241.756,157.334,241.756,158.681z"/>
						</g>
					</g>
				</g>
			</g>
			<g>
				<g>
					<g>
						<path style="fill:#DBE6F7;" d="M145.362,333.261L145.362,333.261c0,1.19,0.964,2.154,2.154,2.154h51.481
							c1.189,0,2.154-0.964,2.154-2.154v0c0-1.189-0.964-2.154-2.154-2.154h-51.481
							C146.326,331.108,145.362,332.072,145.362,333.261z"/>
						<path style="fill:#DBE6F7;" d="M210.66,333.261L210.66,333.261c0,1.19,0.964,2.154,2.154,2.154h51.482
							c1.189,0,2.154-0.964,2.154-2.154v0c0-1.189-0.964-2.154-2.154-2.154h-51.482C211.624,331.108,210.66,332.072,210.66,333.261z
							"/>
					</g>
					<g>
						<path style="fill:#DBE6F7;" d="M145.362,345.269L145.362,345.269c0,1.19,0.964,2.154,2.154,2.154h51.481
							c1.189,0,2.154-0.964,2.154-2.154l0,0c0-1.189-0.964-2.154-2.154-2.154h-51.481
							C146.326,343.116,145.362,344.08,145.362,345.269z"/>
						<path style="fill:#DBE6F7;" d="M210.66,345.269L210.66,345.269c0,1.19,0.964,2.154,2.154,2.154h51.482
							c1.189,0,2.154-0.964,2.154-2.154l0,0c0-1.189-0.964-2.154-2.154-2.154h-51.482C211.624,343.116,210.66,344.08,210.66,345.269
							z"/>
					</g>
					<g>
						<path style="fill:#DBE6F7;" d="M145.362,357.277L145.362,357.277c0,1.189,0.964,2.154,2.154,2.154h51.481
							c1.189,0,2.154-0.964,2.154-2.154l0,0c0-1.189-0.964-2.154-2.154-2.154h-51.481
							C146.326,355.124,145.362,356.088,145.362,357.277z"/>
						<path style="fill:#DBE6F7;" d="M210.66,357.277L210.66,357.277c0,1.189,0.964,2.154,2.154,2.154h51.482
							c1.189,0,2.154-0.964,2.154-2.154l0,0c0-1.189-0.964-2.154-2.154-2.154h-51.482
							C211.624,355.124,210.66,356.088,210.66,357.277z"/>
					</g>
					<g>
						<path style="fill:#DBE6F7;" d="M145.362,369.285L145.362,369.285c0,1.189,0.964,2.154,2.154,2.154h51.481
							c1.189,0,2.154-0.964,2.154-2.154v0c0-1.189-0.964-2.154-2.154-2.154h-51.481
							C146.326,367.131,145.362,368.096,145.362,369.285z"/>
						<path style="fill:#DBE6F7;" d="M210.66,369.285L210.66,369.285c0,1.189,0.964,2.154,2.154,2.154h51.482
							c1.189,0,2.154-0.964,2.154-2.154v0c0-1.189-0.964-2.154-2.154-2.154h-51.482C211.624,367.131,210.66,368.096,210.66,369.285z
							"/>
					</g>
				</g>
			</g>
			<g>
				<path style="fill:#DBE6F7;" d="M178.299,397.284H149.04c-2.021,0-3.658-1.638-3.658-3.658v-3.577
					c0-2.021,1.638-3.659,3.658-3.659h29.258c2.021,0,3.659,1.638,3.659,3.659v3.577
					C181.957,395.646,180.319,397.284,178.299,397.284z"/>
				<path style="fill:#DBE6F7;" d="M220.871,397.284h-29.258c-2.021,0-3.659-1.638-3.659-3.658v-3.577
					c0-2.021,1.638-3.659,3.659-3.659h29.258c2.021,0,3.658,1.638,3.658,3.659v3.577
					C224.53,395.646,222.892,397.284,220.871,397.284z"/>
				<path style="fill:#DBE6F7;" d="M262.79,397.284h-29.259c-2.02,0-3.658-1.638-3.658-3.658v-3.577
					c0-2.021,1.638-3.659,3.658-3.659h29.259c2.02,0,3.658,1.638,3.658,3.659v3.577C266.448,395.646,264.81,397.284,262.79,397.284z
					"/>
			</g>
		</g>
		<g>
			<polygon style="fill:#DBE6F7;" points="276.232,212.03 276.232,310.091 153.062,310.091 153.062,212.03 158.726,212.03 
				158.674,211.975 158.736,212.03 			"/>
			<g>
				<g>
					<rect x="159.929" y="204.453" style="fill:#1D38C8;" width="141.961" height="98.062"/>
					<rect x="165.613" y="204.453" style="fill:#4F60D9;" width="141.961" height="98.062"/>
					<path style="fill:#1D38C8;" d="M165.541,204.397l65.733,68.423c2.883,3.001,7.684,3.001,10.567,0l65.733-68.423l-66.145,58.871
						c-2.777,2.471-6.965,2.471-9.742,0L165.541,204.397z"/>
					<g>
						<polygon style="fill:#1D38C8;" points="222.917,255.202 169.725,302.515 165.613,302.515 165.613,300.015 219.859,251.766 
													"/>
					</g>
					<g>
						<polygon style="fill:#1D38C8;" points="307.574,300.347 307.574,302.515 303.09,302.515 249.897,255.202 252.955,251.766 
													"/>
					</g>
					<path style="fill:#707FFF;" d="M165.609,204.452l66.302,58.967c2.668,2.373,6.69,2.373,9.358,0l66.302-58.967H165.609z"/>
					<g style="opacity:0.5;">
						<path style="fill:#707FFF;" d="M234.874,213.633h-49.137c-1.635,0-2.96-1.325-2.96-2.96c0-1.635,1.325-2.96,2.96-2.96h49.137
							c1.635,0,2.96,1.325,2.96,2.96C237.834,212.308,236.509,213.633,234.874,213.633z"/>
					</g>
					<g style="opacity:0.5;">
						<path style="fill:#707FFF;" d="M249.911,213.633h-4.973c-1.635,0-2.96-1.325-2.96-2.96c0-1.635,1.325-2.96,2.96-2.96h4.973
							c1.635,0,2.96,1.325,2.96,2.96C252.871,212.308,251.546,213.633,249.911,213.633z"/>
					</g>
				</g>
			</g>
		</g>
		<g>
			<g>
				<g>
					<path style="fill:#1D38C8;" d="M285.3,212.712h-14.978c-3.97,0-7.188-3.218-7.188-7.188v-14.978
						c0-3.969,3.218-7.187,7.187-7.187H285.3c3.97,0,7.187,3.218,7.187,7.187v14.978C292.487,209.495,289.269,212.712,285.3,212.712
						z"/>
				</g>
			</g>
			<g>
				<g>
					<path style="fill:#4F60D9;" d="M287.895,212.712h-14.978c-3.97,0-7.188-3.218-7.188-7.188v-14.978
						c0-3.969,3.218-7.187,7.187-7.187h14.978c3.97,0,7.188,3.218,7.188,7.187v14.978
						C295.082,209.495,291.864,212.712,287.895,212.712z"/>
				</g>
			</g>
			<g>
				
					<text transform="matrix(1 0 0 1 276.665 206.9802)" style="fill:#FFFFFF; font-family:'Montserrat-Black'; font-size:23.828px;">!</text>
			</g>
		</g>
	</g>
	<g>
		<g>
			<g>
				<polygon style="fill:#FDA893;" points="335.272,416.816 334.712,426.907 342.899,427.086 343.9,416.485 				"/>
				<g>
					<path style="fill:#707FFF;" d="M337.96,425.489c0,0,4.215-0.955,5.368-0.889c1.153,0.067,8.554,9.002,11.137,9.61
						c4.684,1.102,4.411,8.471,1.525,8.728c-8.347,0.743-22.423-3.305-22.423-3.305s-0.951-9.505-0.269-12.451
						C333.978,424.238,335.606,426.274,337.96,425.489z"/>
					<g>
						<g>
							<path style="fill:#FEFDFF;" d="M344.532,433.822c-0.15,0.027-0.309-0.005-0.442-0.101c-0.257-0.187-0.313-0.547-0.126-0.804
								c0.062-0.086,1.553-2.113,3.327-2.771c2.36-0.878,3.961,0.58,4.028,0.642c0.233,0.216,0.245,0.581,0.028,0.814
								c-0.216,0.232-0.581,0.245-0.814,0.028c-0.043-0.039-1.161-1.027-2.842-0.405c-1.445,0.536-2.783,2.351-2.796,2.37
								C344.804,433.719,344.672,433.796,344.532,433.822z"/>
						</g>
						<g>
							<path style="fill:#FEFDFF;" d="M343.007,432.02c-0.149,0.027-0.309-0.005-0.442-0.101c-0.257-0.187-0.314-0.547-0.126-0.804
								c0.062-0.086,1.553-2.113,3.327-2.771c2.362-0.878,3.961,0.579,4.028,0.643c0.233,0.216,0.245,0.581,0.028,0.813
								c-0.216,0.233-0.581,0.246-0.814,0.028c-0.044-0.039-1.162-1.027-2.842-0.405c-1.452,0.539-2.783,2.351-2.796,2.37
								C343.279,431.917,343.147,431.994,343.007,432.02z"/>
						</g>
						<g>
							<path style="fill:#FEFDFF;" d="M346.697,435.388c-0.149,0.027-0.309-0.004-0.442-0.101c-0.257-0.187-0.314-0.547-0.126-0.805
								c0.062-0.086,1.553-2.113,3.327-2.771c2.362-0.879,3.961,0.58,4.028,0.642c0.233,0.217,0.245,0.581,0.028,0.814
								c-0.216,0.233-0.581,0.246-0.814,0.028c-0.044-0.039-1.162-1.027-2.842-0.405c-1.452,0.539-2.783,2.351-2.796,2.369
								C346.969,435.285,346.838,435.363,346.697,435.388z"/>
						</g>
					</g>
				</g>
			</g>
			<g>
				<g>
					<path style="fill:#3B3E7D;" d="M365.379,293.849c0,0-0.17,2.37-0.48,6.3c-0.08,1.04-0.17,2.19-0.27,3.44
						c-1.06,13.19-3.11,37.04-5.35,53.96c-3.14,23.72-13.03,62.7-13.03,62.7l-10.21-0.35l-1.01-0.04l-2.42-0.08
						c0,0,1.7-24.66,3.87-46.07c1.43-14.12,2.28-47.53,2.69-68.63c0.21-10.88,0.31-18.49,0.31-18.49L365.379,293.849z"/>
				</g>
			</g>
			<g>
				<path style="fill:#18285D;" d="M365.379,293.849c0,0-0.17,2.37-0.48,6.3c-0.08,1.04-0.17,2.19-0.27,3.44
					c-4.71,0.88-17.66,1.49-25.46,1.49c0.21-10.88,0.31-18.49,0.31-18.49L365.379,293.849z"/>
			</g>
			<g>
				<g>
					<path style="fill:#18285D;" d="M344.98,299.977c-0.01,0.81-0.95,77.68-8.94,119.92l-1.01-0.04c8-42.11,8.94-119.09,8.95-119.89
						L344.98,299.977z"/>
				</g>
			</g>
		</g>
		<g>
			<g>
				<polygon style="fill:#FDA893;" points="399.303,418.754 398.968,427.857 390.646,427.417 390.458,417.75 				"/>
				<g>
					<g>
						<g>
							<path style="fill:#707FFF;" d="M396.846,427.439c0,0,1.813-2.362,3.224-2.239c1.41,0.123,12.176,8.945,15.897,9.715
								c3.722,0.77,2.956,3.508,2.251,4.902c-0.705,1.394-29.763-0.969-29.763-0.969s-0.671-8.67,0.319-11.304
								C389.764,424.909,393.918,428.023,396.846,427.439z"/>
							<g>
								<g>
									<path style="fill:#FEFDFF;" d="M402.778,433.572c-0.133,0.037-0.28,0.023-0.408-0.053
										c-0.249-0.147-0.331-0.467-0.185-0.716c0.049-0.083,1.218-2.046,2.764-2.796c2.056-1.001,3.63,0.177,3.696,0.227
										c0.229,0.175,0.273,0.504,0.097,0.733c-0.175,0.229-0.503,0.273-0.733,0.097c-0.043-0.032-1.139-0.826-2.604-0.116
										c-1.259,0.611-2.309,2.369-2.319,2.387C403.015,433.455,402.903,433.536,402.778,433.572z"/>
								</g>
								<g>
									<path style="fill:#FEFDFF;" d="M401.241,432.077c-0.132,0.037-0.28,0.023-0.408-0.052
										c-0.249-0.147-0.332-0.467-0.185-0.716c0.049-0.083,1.218-2.046,2.763-2.796c2.058-1.001,3.631,0.176,3.697,0.227
										c0.229,0.175,0.273,0.504,0.097,0.733c-0.175,0.229-0.504,0.273-0.733,0.097c-0.043-0.032-1.14-0.827-2.604-0.116
										c-1.265,0.614-2.309,2.369-2.319,2.387C401.478,431.96,401.366,432.041,401.241,432.077z"/>
								</g>
								<g>
									<path style="fill:#FEFDFF;" d="M404.872,434.798c-0.133,0.038-0.28,0.023-0.408-0.052
										c-0.249-0.147-0.332-0.467-0.185-0.716c0.049-0.083,1.218-2.046,2.764-2.796c2.058-1.001,3.631,0.176,3.697,0.227
										c0.229,0.175,0.272,0.504,0.097,0.733c-0.175,0.229-0.504,0.273-0.733,0.097c-0.043-0.032-1.141-0.826-2.604-0.116
										c-1.265,0.614-2.309,2.369-2.319,2.387C405.109,434.681,404.997,434.763,404.872,434.798z"/>
								</g>
							</g>
						</g>
					</g>
				</g>
			</g>
			<g>
				<path style="fill:#3B3E7D;" d="M400.819,421.129l-8.459-0.629l-1.008-0.07l-2.055-0.154c0,0-5.196-49.456-6.812-62.63
					c-1.405-11.445-7.965-37.159-12.225-53.159c-1.207-4.542-2.23-8.301-2.904-10.73c-0.514-1.91-0.818-2.996-0.818-2.996
					l28.279-2.738c0,0,0.079,0.621,0.209,1.739c0.275,2.288,0.804,6.672,1.443,12.182c1.766,14.998,4.452,38.338,5.493,50.219
					C404.631,382.758,400.819,421.129,400.819,421.129z"/>
			</g>
			<g>
				<path style="fill:#18285D;" d="M396.47,301.945l-26.209,2.542c-1.207-4.542-2.23-8.301-2.904-10.73l27.67-3.994
					C395.302,292.051,395.831,296.435,396.47,301.945z"/>
			</g>
			<g>
				<g>
					<path style="fill:#18285D;" d="M392.359,420.499l-1.008-0.07c-0.491-15.293-1.992-53.489-5.056-69.681
						c-3.851-20.411-12.706-50.132-12.797-50.432l0.963-0.286c0.091,0.301,8.961,30.073,12.817,50.535
						C390.362,366.859,391.876,405.237,392.359,420.499z"/>
				</g>
			</g>
		</g>
		<g>
			<path style="fill:#FDA893;" d="M396.221,218.307c0.441,3.855,0.907,7.553,1.317,10.652c0.661,4.998,1.172,8.432,1.172,8.432
				l4.052,13.055c1.387,4.466,6.438,6.626,10.627,4.548c0.071-0.033,0.145-0.071,0.218-0.107c7.232-3.708,2.721-17.981,2.721-17.981
				l-1.392-0.064c-0.614-1.559-2.27-5.534-4.375-10.526c-0.255-0.613-0.521-1.244-0.789-1.883c-0.448-1.061-0.911-2.158-1.383-3.279
				c-0.671-1.589-1.364-3.227-2.064-4.877c-5.156-12.189-10.648-25.089-10.648-25.089
				C393.715,192.196,394.825,206.036,396.221,218.307z"/>
			<path style="fill:#FD857D;" d="M396.221,218.307c0.441,3.855,0.907,7.553,1.317,10.652c5.365-1.806,8.881-5.284,10.851-7.805
				c-0.671-1.589-1.364-3.227-2.064-4.877L396.221,218.307z"/>
			<g>
				<path style="fill:#FD857D;" d="M407.523,241.806c0.031,0.003,0.058,0.003,0.089,0.002c0.282-0.007,0.524-0.218,0.56-0.505
					c0.854-6.862,1.772-11.94,2.391-14.987c-0.255-0.612-0.523-1.243-0.79-1.882c-0.585,2.687-1.716,8.408-2.753,16.725
					C406.981,241.475,407.205,241.764,407.523,241.806z"/>
			</g>
			<path style="fill:#707FFF;" d="M412.196,215.746c0,0-1.164,1.455-3.221,3.071c-2.488,1.967-7.096,4.424-11.706,4.581
				c-0.974-16.379-1.916-32.061-3.212-36.097C396.248,189.87,407.355,204.127,412.196,215.746z"/>
			<path style="fill:#FDA893;" d="M408.585,242.106c0,0,0.483-16.44,3.872-20.042c3.388-3.602,6.542-5.036,9.829-5.023
				c3.287,0.013,6.388,0.321,6.23,1.678c0,0,7.505-1.383,10.936,0.464c3.431,1.846-9.856,3.986-13.813,4.217
				c-3.958,0.23-5.978,2.511-6.063,4.877c-0.084,2.366-1.867,18.075-1.867,18.075L408.585,242.106z"/>
		</g>
		<g>
			<g>
				<path style="fill:#707FFF;" d="M400,294.064c-22.1,6.2-44.35,6.75-66.78,1.7c-0.23-6.36-0.68-27.73-0.79-49.78
					c0-1.16-0.01-2.33-0.01-3.5v-1.68c-0.01-0.58-0.01-1.17-0.01-1.75c0-0.59,0-1.17-0.01-1.75c0.01-0.58,0-1.16,0.01-1.75
					c-0.01-0.56,0-1.12-0.01-1.68c0-0.58,0-1.17,0.01-1.74c0-0.58,0.01-1.17,0.01-1.75c0-0.59,0-1.17,0.01-1.75
					c0-0.56,0-1.12,0.01-1.68c0-1.11,0.01-2.23,0.02-3.32v-0.17c0.01-0.75,0.01-1.5,0.03-2.24c0.19-17.2,0.78-31.02,2.1-32.94
					c3.19-4.63,18.13-11.75,22.69-15.12l0.01,0.73c0,0,3,3.76,6.26,3.39c2.96-0.32,5.15-3.82,5.51-4.45
					c2.35,1.57,7.74,4.06,12.98,6.73c5.23,2.67,10.3,5.5,12.02,7.74c1.46,1.92,2.67,16.55,3.61,34.5v0.05
					c0.02,0.34,0.03,0.67,0.05,1.01v0.05c0.01,0.25,0.03,0.51,0.04,0.78c0.03,0.53,0.06,1.06,0.08,1.6
					c0.03,0.55,0.06,1.11,0.08,1.67c0.03,0.58,0.05,1.16,0.09,1.75c0.02,0.58,0.04,1.16,0.08,1.75c0.02,0.57,0.05,1.15,0.07,1.74
					c0.03,0.55,0.05,1.11,0.07,1.67c0.03,0.59,0.05,1.17,0.08,1.76c0.02,0.57,0.05,1.15,0.07,1.74c0.02,0.58,0.05,1.17,0.07,1.75
					c0.03,0.55,0.05,1.11,0.07,1.67c0.04,1.17,0.09,2.33,0.13,3.5C399.47,266.264,399.92,287.644,400,294.064z"/>
			</g>
			<g>
				<path style="fill:#4F60D9;" d="M353.975,189.975c-0.223-0.045-0.397-0.235-0.412-0.473c-0.018-0.284,0.198-0.53,0.482-0.548
					c13.055-0.84,17.536-10.693,17.58-10.792c0.115-0.261,0.42-0.38,0.68-0.265c0.261,0.114,0.38,0.418,0.266,0.679
					c-0.047,0.108-1.193,2.684-4.047,5.391c-2.627,2.491-7.26,5.557-14.412,6.017C354.064,189.987,354.018,189.984,353.975,189.975z
					"/>
			</g>
			<g>
				<path style="fill:#4F60D9;" d="M398.089,230.461l-65.682,1.673c0.004-0.585,0.008-1.169,0.013-1.754
					c0.004-0.585-0.001-1.169,0.013-1.744l65.491-1.668c0.024,0.574,0.049,1.158,0.083,1.742
					C398.03,229.294,398.055,229.877,398.089,230.461z"/>
				<path style="fill:#4F60D9;" d="M398.38,237.372l-65.969,1.68c-0.005-0.584-0.001-1.169-0.006-1.744
					c0.004-0.585-0.001-1.169,0.003-1.754l65.826-1.677c0.025,0.584,0.049,1.168,0.073,1.752
					C398.331,236.204,398.355,236.788,398.38,237.372z"/>
				<path style="fill:#4F60D9;" d="M398.652,244.293l-66.218,1.687c-0.001-1.159-0.011-2.328-0.012-3.497l66.094-1.684
					C398.564,241.967,398.613,243.125,398.652,244.293z"/>
			</g>
			<g>
				<path style="fill:#4F60D9;" d="M390.721,212.667c1.979,2.538,4.923,8.327,6.246,11.003c0.181,0.367,0.33,0.676,0.444,0.91
					c0.15,0.307,0.233,0.485,0.24,0.498c0.043,0.091,0.108,0.164,0.188,0.214c-0.025-0.536-0.052-1.069-0.079-1.6
					c-0.011-0.263-0.027-0.526-0.04-0.785l-0.001-0.043c-0.271-0.545-0.591-1.186-0.949-1.889c-1.501-2.938-3.638-6.896-5.234-8.943
					c-0.175-0.225-0.5-0.264-0.725-0.089C390.585,212.118,390.548,212.444,390.721,212.667z"/>
			</g>
			<g>
				<path style="fill:#4F60D9;" d="M379.519,277.248c0.27-0.007,0.491-0.222,0.502-0.495c0.011-0.285-0.21-0.525-0.495-0.537
					c-14.552-0.582-23.405-7.724-28.27-13.611c-5.289-6.402-7.152-12.756-7.17-12.819c-0.079-0.274-0.364-0.433-0.638-0.354
					c-0.274,0.078-0.433,0.364-0.354,0.638c0.076,0.266,1.926,6.594,7.339,13.159c5,6.065,14.099,13.42,29.052,14.019
					C379.496,277.249,379.508,277.249,379.519,277.248z"/>
			</g>
			<g>
				<path style="fill:#4F60D9;" d="M371.484,268.222c0.228-0.006,0.432-0.163,0.488-0.395c0.067-0.277-0.103-0.556-0.38-0.624
					c-12.711-3.091-15.416-13.572-15.442-13.678c-0.068-0.277-0.348-0.447-0.624-0.379c-0.277,0.067-0.447,0.346-0.379,0.623
					c0.028,0.115,0.709,2.85,3.051,6.012c2.155,2.909,6.186,6.732,13.15,8.426C371.394,268.218,371.439,268.223,371.484,268.222z"/>
			</g>
		</g>
		<g>
			<path style="fill:#4F60D9;" d="M339.21,210.864c-1.92,2.59-4.71,8.45-5.97,11.16c-0.17,0.37-0.31,0.69-0.42,0.92
				c-0.14,0.31-0.22,0.49-0.22,0.51c-0.03,0.07-0.08,0.13-0.14,0.18v-0.17c0.01-0.75,0.01-1.5,0.03-2.24
				c0.24-0.55,0.55-1.2,0.88-1.9c1.43-2.97,3.47-6.98,5.01-9.07c0.17-0.23,0.49-0.28,0.72-0.11
				C339.33,210.314,339.38,210.644,339.21,210.864z"/>
		</g>
		<g>
			<g>
				<path style="fill:#18285D;" d="M402.801,220.602l44.779-1.141c1.277-0.033,2.286-1.094,2.254-2.372l-0.034-1.322
					c-0.033-1.277-1.094-2.286-2.372-2.254l-44.779,1.141c-1.277,0.033-2.286,1.094-2.254,2.372l0.034,1.322
					C400.462,219.626,401.524,220.635,402.801,220.602z"/>
			</g>
			<g>
				<path style="fill:#3B3E7D;" d="M449.882,219.403l8.401-35.014c0.472-1.967-1.049-3.846-3.071-3.794l-20.434,0.52
					c-1.379,0.035-2.566,0.983-2.905,2.32l-9.298,36.663L449.882,219.403z"/>
			</g>
			<g>
				<path style="fill:#18285D;" d="M431.872,183.435l-9.221,36.361l-2.335,0.059l9.221-36.361c0.342-1.337,1.526-2.286,2.906-2.322
					l2.335-0.06C433.399,181.149,432.214,182.098,431.872,183.435z"/>
			</g>
			<g style="opacity:0.5;">
				<path style="fill:#3B3E7D;" d="M437.6,201.937c-0.472,2.308,1.004,4.131,3.298,4.072c2.294-0.058,4.536-1.976,5.009-4.284
					c0.472-2.307-1.004-4.13-3.298-4.072C440.315,197.712,438.073,199.63,437.6,201.937z"/>
			</g>
		</g>
		<g>
			<g>
				<path style="fill:#18285D;" d="M348.23,149.347c0,0-1.358,0.698-1.747-1.967c-0.389-2.665,0.69-3.142-0.112-4.405
					c-0.802-1.263-1.358-2.918-0.104-4.105c1.254-1.188-1.401-4.105,0.049-5.618c1.451-1.513,3.85-1.887,4.769-3.58
					c0.92-1.692,2.36-4.923,6.912-4.974c4.551-0.052,6.102,3.576,8.483,2.552c2.381-1.023,4.136-1.582,6.977,0.336
					c2.841,1.918-0.045,4.687,2.588,5.968c2.632,1.281,0.664,5.247,3.686,7.481c2.278,1.684,0.124,8.534-4.425,7.623
					C370.757,147.746,348.23,149.347,348.23,149.347z"/>
			</g>
			<g>
				<path style="fill:#FD857D;" d="M349.384,150.409c0,0-2.587-3.272-4.377-0.466c-1.79,2.806,1.048,10.886,5.552,8.781
					L349.384,150.409z"/>
				<g>
					<path style="fill:#F05B56;" d="M349.5,156.231c-0.168,0.004-0.325-0.103-0.378-0.272c-0.77-2.497-3.402-3.451-3.428-3.46
						c-0.2-0.071-0.306-0.29-0.235-0.491c0.07-0.201,0.29-0.306,0.49-0.236c0.123,0.043,3.023,1.084,3.91,3.96
						c0.063,0.203-0.051,0.419-0.255,0.481C349.57,156.225,349.535,156.23,349.5,156.231z"/>
				</g>
				<g>
					<path style="fill:#F05B56;" d="M346.838,155.031c-0.072,0.002-0.144-0.016-0.21-0.056c-0.182-0.111-0.239-0.347-0.129-0.529
						c0.018-0.03,0.461-0.745,1.415-1.201c0.191-0.092,0.422-0.011,0.513,0.181c0.092,0.192,0.011,0.421-0.181,0.513
						c-0.737,0.353-1.086,0.902-1.089,0.907C347.086,154.963,346.964,155.028,346.838,155.031z"/>
				</g>
			</g>
			<g>
				<path style="fill:#FD857D;" d="M375.168,149.752c0,0,2.417-3.4,4.348-0.689c1.931,2.711-0.492,10.925-5.097,9.053
					L375.168,149.752z"/>
				<g>
					<path style="fill:#F05B56;" d="M375.348,155.573c0.168-0.004,0.32-0.119,0.363-0.29c0.642-2.533,3.222-3.619,3.248-3.63
						c0.197-0.081,0.291-0.306,0.21-0.502c-0.08-0.197-0.305-0.291-0.501-0.211c-0.121,0.049-2.964,1.237-3.703,4.154
						c-0.052,0.206,0.073,0.415,0.279,0.468C375.279,155.57,375.314,155.574,375.348,155.573z"/>
				</g>
				<g>
					<g>
						<path style="fill:#F05B56;" d="M377.946,154.239c0.072-0.002,0.143-0.023,0.206-0.067c0.176-0.12,0.221-0.359,0.102-0.535
							c-0.02-0.029-0.499-0.721-1.474-1.128c-0.195-0.082-0.422,0.011-0.503,0.207c-0.082,0.196,0.011,0.422,0.207,0.503
							c0.754,0.315,1.131,0.845,1.134,0.85C377.694,154.183,377.82,154.242,377.946,154.239z"/>
					</g>
				</g>
			</g>
			<path style="fill:#FDA893;" d="M368.823,165.173l0.206,8.102c0,0-2.311,4.188-5.572,4.552c-3.257,0.368-6.256-3.396-6.256-3.396
				l-0.214-8.387L368.823,165.173z"/>
			<path style="fill:#FD857D;" d="M368.823,165.173l0.092,3.595c-2.131,2.489-6.009,3.196-11.793,2.492l-0.133-5.215
				L368.823,165.173z"/>
			<path style="fill:#FDA893;" d="M376.835,144.148c-0.07,3.152-0.27,7.097-0.79,10.261c-0.13,0.789-0.281,1.532-0.452,2.199
				c-1.553,6.013-5.557,16.36-17.605,12.4c-5.321-1.748-7.915-7.559-9.156-13.505c-0.842-4.038-1.058-8.134-1.079-11.065
				c-0.018-2.992,1.544-5.766,4.108-7.307c6.946-4.175,14.42-2.875,19.364-1.117C374.656,137.232,376.916,140.514,376.835,144.148z"
				/>
			<g>
				<path style="fill:#18285D;" d="M357.553,151.259c0.022,0.865-0.406,1.577-0.956,1.591c-0.55,0.014-1.013-0.676-1.035-1.541
					s0.406-1.577,0.956-1.591C357.067,149.704,357.531,150.394,357.553,151.259z"/>
			</g>
			<g>
				<path style="fill:#18285D;" d="M369.513,150.954c0.022,0.865-0.406,1.577-0.956,1.591c-0.55,0.014-1.013-0.676-1.035-1.541
					c-0.022-0.865,0.406-1.577,0.956-1.591C369.027,149.399,369.491,150.089,369.513,150.954z"/>
			</g>
			<g>
				<path style="fill:#18285D;" d="M371.875,145.734c0,0-4.155-1.521-7.288-0.072l0.362,1.754c0,0,4.639-0.512,7.006,0.378
					C372.147,147.11,372.16,146.424,371.875,145.734z"/>
			</g>
			<g>
				<path style="fill:#18285D;" d="M352.314,146.24c0,0,4.103-1.743,7.329-0.446l-0.274,1.783c0,0-4.694-0.277-7.029,0.739
					C352.111,147.639,352.063,146.949,352.314,146.24z"/>
			</g>
			<g>
				<path style="fill:#FD857D;" d="M362.918,157.505c-0.643,0.089-1.316-0.072-1.421-0.099c-0.206-0.053-0.33-0.262-0.277-0.468
					c0.052-0.206,0.262-0.331,0.468-0.278c0.364,0.092,1.221,0.197,1.55-0.068c0.063-0.051,0.146-0.146,0.138-0.381
					c-0.047-1.351-1.031-5.764-1.041-5.809c-0.046-0.207,0.084-0.413,0.292-0.46c0.208-0.047,0.413,0.084,0.46,0.292
					c0.041,0.184,1.009,4.528,1.059,5.95c0.019,0.535-0.221,0.844-0.425,1.008C363.496,157.372,363.21,157.465,362.918,157.505z"/>
			</g>
			<path style="fill:#FFFFFF;" d="M357.4,159.785c0.355,1.575,1.475,4.46,4.997,4.37c3.531-0.09,4.453-2.776,4.747-4.618
				L357.4,159.785z"/>
			<g>
				<path style="fill:#FD857D;" d="M362.41,166.542c0.996-0.025,1.828-0.551,1.863-0.574c0.179-0.115,0.231-0.353,0.116-0.532
					c-0.115-0.179-0.353-0.231-0.532-0.117c-0.006,0.004-0.691,0.433-1.467,0.452c-0.712,0.018-1.404-0.373-1.411-0.377
					c-0.184-0.107-0.419-0.045-0.526,0.139c-0.107,0.184-0.045,0.419,0.139,0.526C360.627,166.081,361.47,166.566,362.41,166.542z"
					/>
			</g>
			<g>
				<path style="fill:#18285D;" d="M376.835,144.148c-0.07,3.152-0.27,7.097-0.79,10.261l-1.724-0.078c0,0,0.349-2.669,0.497-4.406
					c0.148-1.737,0.393-4.983-1.095-5.349c-1.484-0.363-0.713-4.078-2.806-5.627c-2.092-1.553-6.686-2.849-9.663-0.909
					c-2.978,1.936-6.445,0.996-7.83,1.355c-1.389,0.355-3.234,2.328-2.676,4.112c0.561,1.781-0.95,2.913-1.276,4.781
					c-0.326,1.868,0.995,6.842,0.995,6.842l-1.635,0.373c-0.842-4.038-1.058-8.134-1.079-11.065
					c-0.018-2.992,1.544-5.766,4.108-7.307c6.946-4.175,14.42-2.875,19.364-1.117C374.656,137.232,376.916,140.514,376.835,144.148z
					"/>
			</g>
		</g>
		<g>
			<path style="fill:#FDA893;" d="M335.536,285.447l-4.11,5.61c0,0-2.38-1.49-5.61-4.08c-0.01-0.01-0.01-0.01-0.02-0.02
				c-4.92-3.93-10.894-11.228-14.63-18.735c-5.833-11.722-3.19-20.131-3.19-20.131c0.58-5.64,3.74-13.454,6.75-21.964
				c1.1-3.09,2.1-5.78,2.8-7.67l9.19,2.11l3.93,2.42l-1.51,3.99c-2.6,8.613-5.54,17.083-9.475,25.136
				c0.89,7.89,4.225,17.414,8.075,23.254C331.716,281.427,335.536,285.447,335.536,285.447z"/>
			<path style="fill:#FD857D;" d="M335.536,285.447l-4.11,5.61c0,0-2.38-1.49-5.61-4.08c-0.01-0.01-0.01-0.01-0.02-0.02
				c-0.71-4.24-0.28-10.23,1.94-11.59C331.716,281.427,335.536,285.447,335.536,285.447z"/>
			<path style="fill:#FDA893;" d="M333.341,278.974c0.827,0.054,5.237,0.273,4.76-1.236c-0.526-1.664-4.854-3.613-4.854-3.613
				s-0.025-0.085,0.017-0.197l-0.047-0.356l-0.191-3.577c-0.836,0.006-1.604,0.169-2.02,0.298c-1.897,0.587-1.637,4.926-1.637,4.926
				s-2.392,0.855-2.305,2.606c0.088,1.752,2.015,2.015,2.015,2.015s-2.632,1.314-2.017,2.803c0.615,1.489,2.61,1.927,2.61,1.927
				s-2.258,1.489-1.469,2.54c0.788,1.051,2.628,1.577,2.628,1.577s-1.575,2.132,0.026,3.294c1.6,1.162,3.954,0.91,5.468,0.384
				c1.514-0.526,1.251-2.453-1.727-3.854c0,0,2.628,0.263,3.941-1.927c1.096-1.826-1.699-2.615-4.083-2.929
				c1.873,0.126,5.105,0.073,5.66-1.714C340.843,279.599,334.354,279.046,333.341,278.974z"/>
			<path style="fill:#FD857D;" d="M330.646,222.987l-1.51,3.99c-3.05,0.19-8.51,0.28-14.41-0.85c1.1-3.09,2.1-5.78,2.8-7.67
				l9.19,2.11L330.646,222.987z"/>
			<path style="fill:#707FFF;" d="M334.586,188.288c0,0-13.862,13.48-22.029,33.053c6.401,2.07,12.461,3.535,18.087,4.235
				c0.665-1.817,4.165-9.339,7.263-14.649L334.586,188.288z"/>
		</g>
	</g>
	<g>
		<path style="fill:#29245D;" d="M222.482,82.339l0.015-0.043c0.232-0.513,0.444-1.033,0.634-1.552
			c2.793-7.622,3.068-23.267-14.301-26.968c0,0-14.315-3.344-20.682,9.538c0,0-2.867,5.968-4.904,10.303
			c0,0-1.709,9.109-10.304,9.913c-8.595,0.804-13.388,4.104-12.562,10.47s-0.496,5.353-6.446,10.736
			c-5.95,5.383-10.101,15.45-4.968,22.076c5.133,6.626,24.338-9.051,36.636-2.046c12.298,7.005,32.949,4.957,35.35-5.011
			c2.401-9.967-7.218-16.536-6.706-21.599C214.757,93.094,220.923,87.183,222.482,82.339z"/>
		<g>
			<g>
				<path style="fill:#707FFF;" d="M227.152,146.24l-12.27,0.01l-5.93-11.53l-0.67-1.32l-2.53-4.91c0,0,0.508-20.9,5.868-23.75
					L227.152,146.24z"/>
				<g>
					<path style="fill:#4F60D9;" d="M208.952,134.72l-0.67-1.32c1.18-2.39,3.22-7.89,1.6-14.97c-0.07-0.33,0.13-0.65,0.45-0.72
						s0.65,0.13,0.72,0.45C212.972,126.56,210.092,132.73,208.952,134.72z"/>
				</g>
			</g>
			<path style="fill:#FDA893;" d="M230.164,144.789c0,0,1.057,4.557,2.858,5.812c1.801,1.255,1.346-5.117,1.346-5.117
				s0.606,7.69,2.47,7.896c1.864,0.206,1.489-7.281,1.489-7.281s1.204,5.148,2.616,5.448c1.413,0.301,1.363-5.183,1.363-5.183
				s1.368,3.983,2.413,4.329c1.046,0.346,1.552-4.281,0.965-6.638c-0.588-2.357-3.522-0.926-3.522-0.926s-2.773-0.801-3.735,0.154
				c0,0-2.486-1.08-3.878-0.381C234.549,142.904,230.489,141.732,230.164,144.789z"/>
		</g>
		<g>
			<g>
				<path style="fill:#707FFF;" d="M209.51,114.74c0.47,4.03,1.75,8.1,0.04,14.51c-0.54,2.03-1.38,3.65-2.96,6.43v0.01
					c-0.01,0-0.01,0-0.01,0c-0.07,0.16-0.16,0.31-0.26,0.47c-0.03,0.29-0.07,0.57-0.1,0.85c-1.03,7.14-0.76,3.35-0.64,9.24h-36.96
					l0.27-14.63l0.06-3.12l0.53-28.72l11.67-1.03h0.01l2.01-0.18l0.12-0.02l3.14-0.27c0.28-0.03,0.55-0.05,0.83-0.07
					c4.23-0.26,8.47,0.4,12.44,1.93l0.13,0.05l1.75,0.67v0.01l0.11,0.04l1.71,0.66l8.22,3.17
					C211.2,106.59,209.89,112.88,209.51,114.74z"/>
			</g>
			<g>
				<path style="fill:#4F60D9;" d="M173.55,120.99l-4.66,10.63l0.06-3.12l3.5-7.99c0.13-0.3,0.49-0.44,0.79-0.31
					C173.54,120.33,173.68,120.69,173.55,120.99z"/>
			</g>
			<g>
				<g>
					<g>
						<path style="fill:#FDA893;" d="M181.155,98.744c3.812,7.682,13.145,16.266,17.927,13.617
							c2.942-1.626,4.144-6.968,4.317-10.796l-1.714-0.658l-0.104-0.039v-0.003l-1.749-0.674l-0.134-0.052
							c-3.965-1.528-8.206-2.186-12.438-1.925c-0.144,0.02-0.29,0.039-0.434,0.059c-0.133,0.016-0.264,0.033-0.394,0.049
							l-3.144,0.235l-0.121,0.01L181.155,98.744z"/>
					</g>
				</g>
			</g>
			<g>
				<g>
					<path style="fill:#4F60D9;" d="M206.325,136.165c-0.035,0.284-0.074,0.566-0.104,0.847c-2.025,0.432-8.381,1.325-19.186-1.262
						c-1.401-0.336-2.878-0.73-4.429-1.193c-0.319-0.093-0.498-0.428-0.405-0.747c0.096-0.314,0.432-0.497,0.746-0.401
						c15.587,4.63,23.544,2.306,23.624,2.284c0.009-0.002,0.014-0.005,0.022-0.007C206.505,135.841,206.418,136.001,206.325,136.165
						z"/>
				</g>
			</g>
		</g>
		<g>
			<g>
				<g>
					<path style="fill:#FD857D;" d="M216.538,81.211c0,0,3.439-2.154,4.314,0.955c0.875,3.11-4.232,9.547-7.904,6.218
						L216.538,81.211z"/>
					<path style="fill:#FFFFFF;" d="M215.06,88.564c-0.155,0.435,0.071,0.913,0.506,1.069c0.435,0.155,0.913-0.071,1.069-0.506
						c0.155-0.435-0.071-0.914-0.506-1.069C215.694,87.903,215.215,88.129,215.06,88.564z"/>
					<g>
						<path style="fill:#F05B56;" d="M214.699,86.457c0.159,0.057,0.341,0.009,0.441-0.128c1.476-2.023,4.27-2.059,4.298-2.059
							c0.212-0.001,0.378-0.167,0.37-0.371c-0.007-0.204-0.185-0.369-0.397-0.369c-0.13,0-3.206,0.032-4.906,2.362
							c-0.12,0.165-0.075,0.396,0.1,0.517C214.634,86.429,214.666,86.445,214.699,86.457z"/>
					</g>
					<g>
						<g>
							<path style="fill:#F05B56;" d="M217.595,86.207c0.068,0.024,0.142,0.031,0.217,0.015c0.206-0.043,0.331-0.24,0.28-0.44
								c-0.008-0.033-0.219-0.822-0.993-1.535c-0.155-0.144-0.399-0.143-0.544,0.003c-0.145,0.145-0.135,0.379,0.02,0.523
								c0.598,0.552,0.768,1.16,0.77,1.166C217.378,86.066,217.475,86.164,217.595,86.207z"/>
						</g>
					</g>
				</g>
				<path style="fill:#FDA893;" d="M192.812,90.017l-3.21,8.988c0,0,3.026,4.715,6.185,6.16c3.154,1.447,5.652-1.993,5.652-1.993
					l2.988-8.365L192.812,90.017z"/>
				<path style="fill:#FD857D;" d="M192.497,90.897l-1.281,3.585c1.32,3.208,4.895,5.454,10.945,6.659l1.95-5.455L192.497,90.897z"
					/>
				<path style="fill:#FDA893;" d="M216.741,85.136c-0.414,0.831-0.852,1.67-1.322,2.494c-3.12,5.475-9.072,10.468-14.118,9.86
					c-10.897-1.313-12.254-10.725-11.78-17.141c0.054-0.713,0.653-1.336,0.786-2.155c0.316-1.939,0.319-4.27,0.881-6.368
					c0.39-1.454,0.806-2.877,1.196-4.158c1.105-3.61,4.328-6.139,7.999-6.266c5.292-0.188,12.849,0.866,18.118,7.156
					c1.946,2.323,2.536,5.548,1.546,8.493C219.29,79.3,218.19,82.203,216.741,85.136z"/>
				<g>
					<g>
						<g>
							<path style="fill:#FD857D;" d="M202.825,85.264c-0.188-0.067-0.305-0.262-0.269-0.464c0.041-0.226,0.256-0.377,0.482-0.336
								l1.425,0.254l-0.09-5.595c-0.004-0.229,0.179-0.419,0.409-0.423c0.229-0.003,0.419,0.179,0.422,0.409l0.106,6.604
								l-2.419-0.432C202.869,85.278,202.846,85.272,202.825,85.264z"/>
						</g>
					</g>
				</g>
				<path style="fill:#29245D;" d="M216.376,73.904c3.298,3.205,0.375,7.438,0.867,10.262c0.031,0.183,0.112,0.243,0.234,0.198
					c1.49-2.985,2.613-5.943,3.383-8.236c1.007-3.004,0.351-6.309-1.718-8.708c-5.602-6.494-13.551-7.656-19.107-7.522
					c-3.854,0.089-7.211,2.641-8.332,6.323c-0.396,1.306-0.817,2.758-1.211,4.241c0.515,0.623,2.049,1.371,1.74,2.446
					c-0.816,2.843-1.36,4.794-0.72,4.836c1.079,0.068,2.89-3.082,2.548-5.659c0,0,1.424-1.144,5.6-1.248
					c5.357-0.133,10.849-1.2,10.849-1.2s2.172-0.438,3.278-1.367C213.789,68.271,213.864,71.463,216.376,73.904z"/>
				<path style="fill:#29245D;" d="M209.995,80.665c-0.308,0.863-0.113,1.721,0.435,1.917c0.548,0.196,1.243-0.345,1.551-1.207
					c0.308-0.862,0.113-1.72-0.435-1.916C210.997,79.262,210.303,79.803,209.995,80.665z"/>
				<path style="fill:#29245D;" d="M198.681,76.617c-0.308,0.863-0.113,1.721,0.435,1.917c0.548,0.196,1.243-0.345,1.551-1.207
					c0.308-0.863,0.113-1.721-0.435-1.916S198.989,75.754,198.681,76.617z"/>
				<path style="fill:#29245D;" d="M214.872,77.208c-0.743-0.441-2.265-1.274-4.006-1.828c-0.458-0.146-0.942,0.066-1.009,0.448
					l-0.002,0.01c-0.053,0.305,0.186,0.609,0.557,0.711c1.204,0.33,4.262,1.444,5.537,2.378c0.113-0.192,0.054-0.461-0.079-0.725
					C215.67,77.802,215.306,77.465,214.872,77.208z"/>
				<path style="fill:#29245D;" d="M198.843,71.694c0.856,0.118,2.566,0.414,4.273,1.066c0.449,0.171,0.696,0.638,0.51,0.979
					l-0.005,0.008c-0.149,0.272-0.525,0.36-0.879,0.209c-1.147-0.491-4.233-1.525-5.813-1.588c0.031-0.221,0.245-0.394,0.514-0.518
					C197.849,71.662,198.343,71.625,198.843,71.694z"/>
				<path style="fill:#FFFFFF;" d="M206.333,89.146c-0.78,1.269-2.647,3.45-5.896,2.289c-3.257-1.163-3.346-3.798-3.092-5.5
					L206.333,89.146z"/>
				<g>
					<path style="fill:#FD857D;" d="M199.64,93.811c0.938,0.335,1.946,0.126,1.989,0.117c0.22-0.047,0.36-0.264,0.313-0.484
						c-0.047-0.22-0.263-0.36-0.483-0.314l0,0c-0.008,0.002-0.83,0.169-1.545-0.087c-0.774-0.276-1.321-0.934-1.326-0.941
						c-0.143-0.174-0.399-0.2-0.574-0.057c-0.174,0.142-0.2,0.398-0.058,0.572C197.984,92.652,198.647,93.456,199.64,93.811z"/>
				</g>
			</g>
			<g>
				<path style="fill:#FDA893;" d="M192.268,72.514c0,0-1.56-4.324-4.045-2.496c-2.485,1.828-2.729,9.763,1.868,9.448
					L192.268,72.514z"/>
				<path style="fill:#FFFFFF;" d="M187.534,78.732c-0.155,0.435,0.071,0.913,0.506,1.069c0.435,0.155,0.914-0.071,1.069-0.506
					c0.155-0.435-0.071-0.914-0.506-1.069C188.167,78.07,187.689,78.297,187.534,78.732z"/>
				<g>
					<path style="fill:#FD857D;" d="M190.008,76.957c-0.147-0.052-0.247-0.198-0.236-0.361c0.168-2.417-1.789-4.12-1.809-4.137
						c-0.149-0.128-0.167-0.353-0.04-0.503c0.128-0.15,0.353-0.168,0.503-0.041c0.092,0.078,2.252,1.947,2.059,4.73
						c-0.014,0.197-0.184,0.345-0.381,0.331C190.07,76.974,190.038,76.967,190.008,76.957z"/>
				</g>
				<g>
					<g>
						<g>
							<path style="fill:#FD857D;" d="M188.106,75.03c-0.062-0.022-0.119-0.062-0.163-0.118c-0.12-0.156-0.091-0.38,0.065-0.501
								c0.026-0.02,0.648-0.49,1.625-0.566c0.196-0.016,0.368,0.132,0.383,0.328c0.015,0.196-0.132,0.368-0.328,0.384
								c-0.755,0.059-1.24,0.417-1.245,0.421C188.344,75.053,188.217,75.069,188.106,75.03z"/>
						</g>
					</g>
				</g>
			</g>
			<g>
				<g>
					<path style="fill:#FFFFFF;" d="M204.372,77.293c0.084-0.233,0.113-0.475,0.093-0.709c-0.05-0.642-0.459-1.227-1.1-1.472
						l-5.659-2.164c-0.445-0.17-0.915-0.143-1.318,0.037c-0.221,0.099-0.419,0.243-0.582,0.428
						c-0.137,0.152-0.248,0.329-0.325,0.529l-0.277,0.723c-0.469,1.226-0.436,2.58,0.09,3.72c0.526,1.132,1.319,1.92,2.361,2.344
						l0.149,0.057c1.211,0.463,2.529,0.429,3.718-0.098c1.207-0.534,2.13-1.507,2.601-2.74l0.234-0.612
						C204.363,77.323,204.369,77.307,204.372,77.293z M203.457,77.693c-0.403,1.055-1.193,1.885-2.222,2.341
						c-1.017,0.45-2.142,0.479-3.175,0.084l-0.136-0.052c-0.867-0.354-1.533-1.02-1.979-1.981c-0.447-0.964-0.473-2.119-0.073-3.165
						l0.277-0.723c0.199-0.521,0.781-0.78,1.301-0.581l5.659,2.164c0.518,0.198,0.781,0.781,0.581,1.301L203.457,77.693z"/>
				</g>
				<g>
					<path style="fill:#FFFFFF;" d="M216.46,81.469c0.026-0.243-0.005-0.487-0.081-0.715c-0.161-0.467-0.519-0.864-1.015-1.054
						l-5.661-2.165c-0.656-0.251-1.372-0.073-1.839,0.399c-0.157,0.157-0.286,0.347-0.371,0.564c-0.007,0.01-0.01,0.019-0.014,0.03
						l-0.277,0.723c-0.469,1.226-0.434,2.581,0.092,3.721c0.524,1.131,1.319,1.92,2.359,2.343l0.151,0.058
						c1.211,0.463,2.529,0.429,3.718-0.098c1.204-0.534,2.13-1.507,2.601-2.74l0.234-0.612
						C216.414,81.776,216.449,81.623,216.46,81.469z M215.455,82.282c-0.403,1.055-1.193,1.885-2.224,2.34
						c-1.014,0.451-2.14,0.48-3.172,0.085l-0.138-0.053c-0.867-0.355-1.533-1.02-1.979-1.981c-0.445-0.964-0.473-2.119-0.073-3.165
						l0.277-0.723c0.199-0.521,0.783-0.78,1.301-0.581l5.661,2.165c0.518,0.198,0.78,0.781,0.581,1.301L215.455,82.282z"/>
				</g>
				<g>
					<path style="fill:#FFFFFF;" d="M196.388,72.985c-0.462-0.503-1.721-1.671-3.861-2.307v0.754
						c1.766,0.576,2.848,1.536,3.279,1.981c0.143,0.146,0.215,0.238,0.219,0.242l0.566-0.434
						C196.578,73.203,196.511,73.116,196.388,72.985z"/>
				</g>
				<g>
					<path style="fill:#FFFFFF;" d="M204.124,77.275l0.022-0.714c0.045,0.001,1.105,0.037,2.134,0.431
						c1.096,0.419,1.673,1.026,1.697,1.051l-0.521,0.489c-0.004-0.004-0.498-0.516-1.431-0.873
						C205.112,77.31,204.134,77.275,204.124,77.275z"/>
				</g>
				<g>
					<path style="fill:#FFFFFF;" d="M218.683,80.931c-1.33-0.268-2.535-0.164-2.613-0.157l0.065,0.711
						c0.02-0.001,1.257-0.106,2.548,0.179V80.931z"/>
				</g>
			</g>
		</g>
		<path style="fill:#FDA893;" d="M198.786,146.289c0,0,0.23,4.557-1.217,5.813c-1.447,1.255-2.79-5.117-2.79-5.117
			s1.565,7.69-0.241,7.896c-1.806,0.206-3.545-7.281-3.545-7.281s0.25,5.148-1.078,5.448c-1.328,0.301-2.827-5.183-2.827-5.183
			s-0.243,3.983-1.191,4.329c-0.948,0.346-2.761-4.281-2.839-6.637c-0.078-2.357,3.26-0.926,3.26-0.926s2.547-0.8,3.778,0.154
			c0,0,2.181-1.08,3.771-0.381C193.869,144.404,197.598,143.232,198.786,146.289z"/>
		<g>
			<g>
				<g>
					<g>
						<g>
							<g>
								<path style="fill:#707FFF;" d="M178.43,146.24l-26.25,0.01c-0.02-0.01-0.08-0.23-0.08-0.24
									c-0.46-6.97,3.95-18.71,7.03-28.97c2.04-6.79,4.72-14.96,10.35-17.26c0.99,1.17,2.82,5.99,2.95,8.45
									c0.3,5.94-0.45,12.22-1.55,15.52c-1.59,4.74-3.58,10.51-5.03,15.25c0,0,0,0.01-0.01,0.04c-0.03,0.13-0.13,0.6-0.13,0.61
									c0.04,0.01,0.3,0.15,0.76,0.41C168.18,141.01,172.65,143.52,178.43,146.24z"/>
							</g>
						</g>
					</g>
				</g>
			</g>
			<g>
				<path style="fill:#4F60D9;" d="M166.47,140.06c-2.75,1.28-6.64,3.98-6.68,4.01c-0.11,0.08-0.23,0.11-0.34,0.11
					c-0.19,0-0.38-0.09-0.5-0.26c-0.19-0.27-0.12-0.64,0.15-0.83c0.17-0.12,3.92-2.72,6.74-4.05c-0.03,0.13-0.13,0.6-0.13,0.61
					C165.75,139.66,166.01,139.8,166.47,140.06z"/>
			</g>
		</g>
		<path style="fill:none;stroke:#FFFFFF;stroke-width:1.2;stroke-linecap:round;stroke-miterlimit:10;" d="M186.431,98.276
			c0,0,1.999,9.099,9.159,9.599s7.809-6.733,7.809-6.733"/>
	</g>
	<g>
		<g>
			<g>
				<g>
					<path style="fill:#4F60D9;" d="M439.133,396.39c0,0-0.816,0.798-2.488,0.921c-0.505,0.041-1.085,0.018-1.754-0.117
						c-0.71-0.129-1.514-0.382-2.406-0.804c0,0,0.387-16.441-6.261-27.766c-6.648-11.325-15.45-26.968-8.409-34.99
						c7.041-8.021,18.384,3.128,22.098,21.904C443.634,374.316,439.133,396.39,439.133,396.39z"/>
				</g>
				<g>
					<path style="fill:#1D38C8;" d="M436.645,397.311c-0.505,0.041-1.085,0.018-1.754-0.117
						c2.136-29.186-11.114-51.73-11.248-51.959c-0.252-0.417-0.117-0.956,0.299-1.209c0.417-0.247,0.957-0.112,1.209,0.305
						C425.291,344.56,438.822,367.55,436.645,397.311z"/>
				</g>
			</g>
			<g>
				<g>
					<path style="fill:#4F60D9;" d="M461.935,369.856c-15.555,25.149-14.481,30.964-14.481,30.964l-2.042-0.364l-1.737-0.305
						l-2.477-0.44c-1.379-11.155,7.188-58.302,22.462-58.302C479.21,341.409,467.234,361.295,461.935,369.856z"/>
				</g>
				<g>
					<path style="fill:#1D38C8;" d="M461.348,355.386c-0.147,0.247-13.173,23.483-15.937,45.07l-1.737-0.305
						c2.84-21.934,15.996-45.381,16.136-45.633c0.24-0.422,0.781-0.569,1.203-0.329C461.436,354.43,461.583,354.964,461.348,355.386
						z"/>
				</g>
			</g>
			<g>
				<g>
					<path style="fill:#4F60D9;" d="M432.344,398.62l-1.79,0.481l-1.713,0.464l-1.027,0.276c0.064-0.223-0.716-2.148-11.659-16.77
						c-4.518-6.044-16.571-22.297-5.521-25.026C420.767,355.545,432.637,390.199,432.344,398.62z"/>
				</g>
				<g>
					<path style="fill:#1D38C8;" d="M430.554,399.101l-1.713,0.464c-3.157-14.089-15.966-31.381-16.107-31.569
						c-0.288-0.387-0.206-0.939,0.182-1.232c0.388-0.288,0.939-0.211,1.232,0.182C414.712,367.708,427.304,384.69,430.554,399.101z"
						/>
				</g>
			</g>
			<g>
				<path style="fill:#3B3E7D;" d="M454.016,435.824c0,2.815-34.791,2.815-34.791,0v-41.368c0-0.428,0.347-0.775,0.775-0.775h33.24
					c0.428,0,0.775,0.347,0.775,0.775V435.824z"/>
			</g>
		</g>
		<g>
			<g>
				<g>
					<path style="fill:#3B3E7D;" d="M93.003,436.857H67.997c-3.401,0-6.415-2.602-7.466-6.445l-10.605-38.781
						c-0.434-1.587,0.497-3.236,1.897-3.365c19.308-1.778,38.428-1.78,57.357-0.005c1.398,0.131,2.327,1.779,1.894,3.364
						l-10.606,38.786C99.418,434.255,96.404,436.857,93.003,436.857z"/>
				</g>
				<g>
					<path style="fill:#18285D;" d="M108.854,391.082c0,1.032-12.618,1.868-28.183,1.868s-28.183-0.836-28.183-1.868
						c0-1.032,12.618-1.868,28.183-1.868S108.854,390.051,108.854,391.082z"/>
				</g>
				<path style="fill:#4F60D9;" d="M112.589,338.67c-10.142-2.672-25.638,18.379-30.344,38.903V347.67
					c2.366-4.195,6.876-10.507,15.065-17.176c12.735-10.372,24.458-23.682,14.298-26.358c-9.521-2.508-23.761,15.893-29.363,35.137
					v-38.401c1.641-2.547,4.329-5.889,8.626-9.389c8.026-6.537,15.414-14.925,9.011-16.612c-5.557-1.464-13.664,8.373-17.637,19.467
					v-12.446c0.657-3.85,1.585-9.349,4.132-14.971c5.903-13.026,9.092-26.447,1.309-25.448c-7.79,0.999-12.841,24.199-8.581,42.009
					v6.405c-2.878-13.034-12.75-26.532-19.194-24.835c-6.403,1.687,0.985,10.075,9.011,16.612
					c6.109,4.976,8.968,9.633,10.183,12.138v30.251c-4.615-20.627-20.221-41.917-30.417-39.231
					c-10.16,2.676,1.563,15.987,14.298,26.358c9.623,7.838,14.168,15.182,16.119,19.177v36.276
					c-4.933-20.25-20.14-40.686-30.141-38.051c-10.16,2.676-1.447,12.404,12.865,24.169c9.726,7.996,14.936,16.434,17.276,21.021
					v17.087c1.135,0.318,2.198,0.316,3.14,0v-6.799c1.991-4.027,6.54-11.287,16.047-19.029
					C111.026,354.657,122.749,341.346,112.589,338.67z"/>
			</g>
		</g>
	</g>
</g>
<g id="DESIGNED_BY_FREEPIK">
	<g>
		<g id="XMLID_1_">
			<g id="XMLID_20_">
				<path id="XMLID_28_" style="fill:#112129;" d="M260.104,465.465c-0.432,0.443-0.803,0.931-1.108,1.453l-0.465-0.241
					c-0.067-0.298-0.349-0.503-0.659-0.466c-0.331,0.039-0.568,0.339-0.529,0.67c0.039,0.331,0.339,0.568,0.67,0.529
					c0.065-0.008,0.127-0.026,0.183-0.052l0.452,0.234c-0.251,0.554-0.433,1.139-0.539,1.744l0.747,0.132
					c0.23-1.306,0.85-2.507,1.792-3.473L260.104,465.465z"/>
				<path id="XMLID_27_" style="fill:#112129;" d="M265.592,463.163c-0.171,0-0.341,0.006-0.51,0.017l-0.074-0.626
					c0.188-0.149,0.296-0.389,0.266-0.645c-0.046-0.393-0.402-0.674-0.795-0.628c-0.393,0.046-0.674,0.402-0.628,0.795
					c0.03,0.254,0.189,0.461,0.405,0.564l0.073,0.624c-0.714,0.116-1.403,0.332-2.06,0.646l0.327,0.684
					c0.934-0.447,1.942-0.673,2.995-0.673c0.496,0,0.993,0.053,1.475,0.158l0.161-0.741
					C266.692,463.222,266.142,463.163,265.592,463.163z"/>
				<path id="XMLID_26_" style="fill:#112129;" d="M272.194,465.711c0.331-0.04,0.566-0.341,0.526-0.672
					c-0.04-0.331-0.341-0.566-0.672-0.526c-0.309,0.038-0.535,0.304-0.53,0.609l-0.416,0.363c-0.418-0.43-0.89-0.813-1.408-1.139
					l-0.404,0.641c1.134,0.715,2.021,1.726,2.563,2.925l0.691-0.313c-0.251-0.554-0.568-1.072-0.942-1.545l0.402-0.351
					C272.065,465.716,272.129,465.719,272.194,465.711z"/>
				<path id="XMLID_25_" style="fill:#112129;" d="M265.044,473.372c-0.386,0.023-0.775,0.035-1.157,0.035
					c-0.88,0-1.733-0.061-2.478-0.179c-0.39-0.062-0.846-0.155-1.27-0.292c1.046,1.861,3.069,3.125,5.388,3.125
					c2.855,0,5.262-1.916,5.95-4.504c-0.682,0.449-1.505,0.825-2.459,1.123C267.839,473.047,266.464,473.286,265.044,473.372z"/>
				<path id="XMLID_21_" style="fill:#112129;" d="M265.592,464.68c-3.352,0-6.08,2.666-6.08,5.943c0,0.426,0.046,0.849,0.137,1.261
					c0.673,0.483,2.706,0.89,5.348,0.731c2.879-0.173,5.297-0.957,6.672-2.159c-0.005-0.195-0.021-0.39-0.045-0.582
					C271.244,466.913,268.65,464.68,265.592,464.68z M263.432,471.194c-1.02,0-1.85-0.83-1.85-1.85c0-1.02,0.83-1.85,1.85-1.85
					c1.02,0,1.85,0.83,1.85,1.85C265.282,470.365,264.452,471.194,263.432,471.194z M268.17,470.286c-0.75,0-1.36-0.61-1.36-1.36
					s0.61-1.361,1.36-1.361c0.75,0,1.361,0.61,1.361,1.361S268.92,470.286,268.17,470.286z"/>
			</g>
			<path id="XMLID_18_" style="fill:#112129;" d="M281.595,466.547c-0.295-0.116-0.805-0.309-1.382-0.237
				c-0.551,0.069-0.844,0.341-0.844,1.007v0.866h2.228v1.717h-2.228v5.455h-1.932v-5.455h-1.34v-1.717h1.34v-0.888
				c0-1.68,0.896-2.783,2.568-2.783c0.643,0,1.157,0.122,1.59,0.308L281.595,466.547z"/>
			<path id="XMLID_16_" style="fill:#112129;" d="M286.298,469.879c-0.177-0.03-0.358-0.046-0.526-0.046
				c-0.896,0-1.51,0.548-1.51,1.614v3.908h-1.932v-7.172h1.873v0.785c0.451-0.673,1.14-0.977,2.021-0.977
				c0.414,0,0.848,0.128,1.094,0.337L286.298,469.879z"/>
			<path id="XMLID_13_" style="fill:#112129;" d="M293.965,471.757c0,0.222-0.015,0.489-0.037,0.651h-5.085
				c0.207,1.036,0.933,1.488,1.843,1.488c0.622,0,1.295-0.252,1.813-0.688l1.132,1.243c-0.814,0.748-1.85,1.088-3.057,1.088
				c-2.198,0-3.723-1.495-3.723-3.753c0-2.258,1.48-3.797,3.627-3.797C292.544,467.99,293.958,469.522,293.965,471.757z
				 M288.851,471.091h3.175c-0.177-0.918-0.733-1.436-1.562-1.436C289.554,469.655,289.021,470.203,288.851,471.091z"/>
			<path id="XMLID_10_" style="fill:#112129;" d="M301.618,471.757c0,0.222-0.015,0.489-0.037,0.651h-5.085
				c0.207,1.036,0.933,1.488,1.843,1.488c0.622,0,1.295-0.252,1.813-0.688l1.132,1.243c-0.814,0.748-1.85,1.088-3.057,1.088
				c-2.198,0-3.723-1.495-3.723-3.753c0-2.258,1.48-3.797,3.627-3.797C300.197,467.99,301.611,469.522,301.618,471.757z
				 M296.504,471.091h3.175c-0.178-0.918-0.733-1.436-1.562-1.436C297.207,469.655,296.674,470.203,296.504,471.091z"/>
			<path id="XMLID_7_" style="fill:#112129;" d="M309.964,471.764c0,2.154-1.495,3.775-3.471,3.775
				c-0.962,0-1.643-0.378-2.109-0.933v3.708h-1.924v-10.133h1.887v0.792c0.466-0.585,1.155-0.984,2.139-0.984
				C308.469,467.99,309.964,469.61,309.964,471.764z M304.287,471.764c0,1.132,0.747,1.976,1.843,1.976
				c1.14,0,1.85-0.881,1.85-1.976c0-1.095-0.71-1.976-1.85-1.976C305.035,469.788,304.287,470.632,304.287,471.764z"/>
			<path id="XMLID_4_" style="fill:#112129;" d="M313.068,465.836c0,0.696-0.54,1.229-1.236,1.229c-0.696,0-1.229-0.533-1.229-1.229
				c0-0.696,0.533-1.243,1.229-1.243C312.527,464.592,313.068,465.14,313.068,465.836z M312.809,475.354h-1.932v-7.172h1.932
				V475.354z"/>
			<path id="XMLID_2_" style="fill:#112129;" d="M316.032,470.736l2.701-2.554h2.368l-3.479,3.375l3.501,3.797h-2.376l-2.716-2.901
				v2.901H314.1v-10.658h1.932V470.736z"/>
		</g>
		<g>
			<path style="fill:#112129;" d="M184.412,475.289v-1.055c-0.527,0.718-1.391,1.23-2.387,1.23c-1.846,0-3.149-1.406-3.149-3.706
				c0-2.256,1.289-3.721,3.149-3.721c0.952,0,1.816,0.469,2.387,1.245v-3.765h1.099v9.77H184.412z M184.412,473.37v-3.208
				c-0.395-0.615-1.245-1.143-2.124-1.143c-1.421,0-2.27,1.172-2.27,2.739c0,1.567,0.85,2.724,2.27,2.724
				C183.168,474.483,184.017,473.986,184.412,473.37z"/>
			<path style="fill:#112129;" d="M186.932,471.744c0-2.051,1.465-3.706,3.486-3.706c2.139,0,3.398,1.67,3.398,3.794v0.279h-5.727
				c0.088,1.333,1.025,2.446,2.549,2.446c0.805,0,1.626-0.322,2.182-0.894l0.527,0.718c-0.703,0.703-1.655,1.084-2.812,1.084
				C188.44,475.465,186.932,473.956,186.932,471.744z M190.403,468.947c-1.509,0-2.256,1.274-2.314,2.358h4.643
				C192.718,470.25,192.015,468.947,190.403,468.947z"/>
			<path style="fill:#112129;" d="M194.607,474.351l0.571-0.791c0.469,0.542,1.362,1.011,2.329,1.011c1.084,0,1.67-0.513,1.67-1.216
				c0-1.714-4.38-0.659-4.38-3.281c0-1.098,0.952-2.036,2.636-2.036c1.201,0,2.051,0.454,2.622,1.026l-0.513,0.762
				c-0.424-0.513-1.201-0.894-2.109-0.894c-0.967,0-1.567,0.483-1.567,1.113c0,1.552,4.38,0.527,4.38,3.281
				c0,1.187-0.952,2.138-2.783,2.138C196.306,475.465,195.325,475.113,194.607,474.351z"/>
			<path style="fill:#112129;" d="M201.477,466.471c0-0.41,0.337-0.747,0.732-0.747c0.41,0,0.747,0.337,0.747,0.747
				c0,0.41-0.337,0.732-0.747,0.732C201.814,467.203,201.477,466.881,201.477,466.471z M201.667,475.289v-7.075h1.099v7.075H201.667
				z"/>
			<path style="fill:#112129;" d="M204.582,477.105l0.556-0.82c0.586,0.703,1.289,0.967,2.3,0.967c1.172,0,2.27-0.571,2.27-2.124
				v-1.011c-0.513,0.718-1.377,1.26-2.373,1.26c-1.845,0-3.149-1.377-3.149-3.662c0-2.27,1.289-3.677,3.149-3.677
				c0.952,0,1.802,0.469,2.373,1.245v-1.069h1.098v6.87c0,2.344-1.641,3.076-3.369,3.076
				C206.237,478.16,205.417,477.926,204.582,477.105z M209.709,473.253v-3.091c-0.381-0.615-1.23-1.143-2.109-1.143
				c-1.421,0-2.27,1.128-2.27,2.695c0,1.553,0.849,2.695,2.27,2.695C208.478,474.41,209.328,473.868,209.709,473.253z"/>
			<path style="fill:#112129;" d="M217.413,475.289v-4.629c0-1.245-0.63-1.641-1.582-1.641c-0.865,0-1.685,0.527-2.095,1.099v5.17
				h-1.099v-7.075h1.099v1.025c0.498-0.586,1.465-1.201,2.519-1.201c1.48,0,2.256,0.747,2.256,2.285v4.966H217.413z"/>
			<path style="fill:#112129;" d="M219.932,471.744c0-2.051,1.465-3.706,3.486-3.706c2.139,0,3.398,1.67,3.398,3.794v0.279h-5.727
				c0.088,1.333,1.025,2.446,2.549,2.446c0.806,0,1.626-0.322,2.183-0.894l0.527,0.718c-0.703,0.703-1.655,1.084-2.812,1.084
				C221.441,475.465,219.932,473.956,219.932,471.744z M223.404,468.947c-1.509,0-2.256,1.274-2.314,2.358h4.643
				C225.718,470.25,225.015,468.947,223.404,468.947z"/>
			<path style="fill:#112129;" d="M233.35,475.289v-1.055c-0.527,0.718-1.392,1.23-2.388,1.23c-1.846,0-3.149-1.406-3.149-3.706
				c0-2.256,1.289-3.721,3.149-3.721c0.952,0,1.817,0.469,2.388,1.245v-3.765h1.098v9.77H233.35z M233.35,473.37v-3.208
				c-0.396-0.615-1.245-1.143-2.124-1.143c-1.421,0-2.27,1.172-2.27,2.739c0,1.567,0.849,2.724,2.27,2.724
				C232.105,474.483,232.954,473.986,233.35,473.37z"/>
			<path style="fill:#112129;" d="M239.692,475.289v-9.77h1.098v3.765c0.572-0.776,1.421-1.245,2.388-1.245
				c1.845,0,3.149,1.465,3.149,3.721c0,2.299-1.304,3.706-3.149,3.706c-0.996,0-1.86-0.513-2.388-1.23v1.055H239.692z
				 M242.9,474.483c1.436,0,2.285-1.157,2.285-2.724c0-1.568-0.85-2.739-2.285-2.739c-0.864,0-1.728,0.527-2.109,1.143v3.208
				C241.171,473.986,242.036,474.483,242.9,474.483z"/>
			<path style="fill:#112129;" d="M247.528,477.061c0.161,0.073,0.425,0.117,0.601,0.117c0.483,0,0.805-0.161,1.055-0.747
				l0.469-1.069l-2.959-7.148h1.187l2.358,5.8l2.344-5.8h1.201l-3.545,8.51c-0.425,1.025-1.143,1.421-2.08,1.435
				c-0.234,0-0.601-0.044-0.806-0.103L247.528,477.061z"/>
		</g>
	</g>
</g>
</svg>
